<svg xmlns="http://www.w3.org/2000/svg" viewBox="0 0 500 500"><g id="freepik--background-complete--inject-36"><rect y="382.4" width="500" height="0.25" style="fill:#ebebeb"></rect><rect x="416.78" y="398.49" width="33.12" height="0.25" style="fill:#ebebeb"></rect><rect x="322.53" y="401.21" width="8.69" height="0.25" style="fill:#ebebeb"></rect><rect x="396.59" y="389.21" width="19.19" height="0.25" style="fill:#ebebeb"></rect><rect x="52.46" y="390.89" width="43.19" height="0.25" style="fill:#ebebeb"></rect><rect x="104.56" y="390.89" width="6.33" height="0.25" style="fill:#ebebeb"></rect><rect x="131.47" y="395.11" width="93.68" height="0.25" style="fill:#ebebeb"></rect><path d="M237,337.8H43.91a5.71,5.71,0,0,1-5.7-5.71V60.66A5.71,5.71,0,0,1,43.91,55H237a5.71,5.71,0,0,1,5.71,5.71V332.09A5.71,5.71,0,0,1,237,337.8ZM43.91,55.2a5.46,5.46,0,0,0-5.45,5.46V332.09a5.46,5.46,0,0,0,5.45,5.46H237a5.47,5.47,0,0,0,5.46-5.46V60.66A5.47,5.47,0,0,0,237,55.2Z" style="fill:#ebebeb"></path><path d="M453.31,337.8H260.21a5.72,5.72,0,0,1-5.71-5.71V60.66A5.72,5.72,0,0,1,260.21,55h193.1A5.71,5.71,0,0,1,459,60.66V332.09A5.71,5.71,0,0,1,453.31,337.8ZM260.21,55.2a5.47,5.47,0,0,0-5.46,5.46V332.09a5.47,5.47,0,0,0,5.46,5.46h193.1a5.47,5.47,0,0,0,5.46-5.46V60.66a5.47,5.47,0,0,0-5.46-5.46Z" style="fill:#ebebeb"></path><circle cx="145.82" cy="126.13" r="37.55" transform="translate(-37.17 65.4) rotate(-22.5)" style="fill:#ebebeb"></circle><path d="M57.34,150.62s6.38-11.16,12.53-10.25,10.21,5,16.17,2.21,9.87-14,20.12-11.86,9.78,13.87,15.29,14.17,8-6.63,13.67-5.43,7.8,11.16,7.8,11.16Z" style="fill:#f5f5f5"></path><path d="M329.57,90.9S336,79.75,342.1,80.66s10.21,5,16.17,2.21,9.88-14,20.12-11.86,9.78,13.87,15.29,14.17,8-6.63,13.68-5.43,7.79,11.15,7.79,11.15Z" style="fill:#f5f5f5"></path><path d="M435.77,246.22c-1.21-13.13-9.72-19.19-17.24-19.19-12,0-16.09,10.74-24.13,13.15s-11.45-3.72-18.49-2.42c-5.69,1-9.15,7.27-10.27,8.83Z" style="fill:#f5f5f5"></path></g><g id="freepik--Shadow--inject-36"><ellipse id="freepik--path--inject-36" cx="250" cy="416.24" rx="193.89" ry="11.32" style="fill:#f5f5f5"></ellipse></g><g id="freepik--Umbrella--inject-36"><polygon points="232.6 343.44 238.87 410.14 236.01 409.77 230.69 343.67 232.6 343.44" style="fill:#263238"></polygon><polygon points="232.6 343.44 238.87 410.14 236.01 409.77 230.69 343.67 232.6 343.44" style="fill:#fff;opacity:0.8"></polygon><path d="M260.67,356.72s-9.69-8.31-28.82-11.53a66.28,66.28,0,0,0-25.4,15.33s-1.13,6,2.92,6.66,5.39-4.21,5.39-4.21,2.8,5.67,7.22,4.23,4.11-6.21,4.11-6.21,2.43,5.26,8.14,4.7c5-.48,6.34-5.36,6.34-5.36s2.54,4.11,7.06,3.9c3.64-.17,4.83-3.79,4.83-3.79s2.72,4.48,6.17,3.2C261.59,362.55,260.67,356.72,260.67,356.72Z" style="fill:#0E630A"></path><path d="M258.63,363.64c-3.45,1.28-6.17-3.2-6.17-3.2s-1.19,3.62-4.83,3.78c-4.52.23-7.06-3.89-7.06-3.89a6.39,6.39,0,0,1-.23.62,7.45,7.45,0,0,1-6.11,4.74c-5.71.56-8.14-4.69-8.14-4.69v.09c0,.65-.06,4.79-4.12,6.11-4.43,1.44-7.21-4.22-7.21-4.22s-1.35,4.88-5.4,4.2-2.92-6.66-2.92-6.66a66.49,66.49,0,0,1,25.33-15.31h.11l.2,0c19,3.23,28.58,11.48,28.58,11.48S261.59,362.54,258.63,363.64Z" style="fill:#fff;opacity:0.7000000000000001"></path><path d="M226.1,361.09c0,.65-.06,4.79-4.12,6.11-4.43,1.44-7.21-4.22-7.21-4.22l.15-2.62s7.6-9.65,16.84-15.11a45.08,45.08,0,0,0-6,13.51l.35,2.24Z" style="fill:#fff;opacity:0.7000000000000001"></path><path d="M232.09,345.24l0,.05-.24-.09h0l-.09.06a.08.08,0,0,0,0,0,1.28,1.28,0,0,0,.14-.21Z" style="fill:#fff;opacity:0.7000000000000001"></path><path d="M252.65,356.5l-.19,3.94s-1.19,3.62-4.83,3.78c-4.52.23-7.06-3.89-7.06-3.89l-.61-3a137.92,137.92,0,0,0-7.83-12.06C234.09,346,246,350.87,252.65,356.5Z" style="fill:#fff;opacity:0.7000000000000001"></path><path d="M258.63,363.64c-3.45,1.28-6.17-3.2-6.17-3.2s-1.19,3.62-4.83,3.78c-4.52.23-7.06-3.89-7.06-3.89a6.39,6.39,0,0,1-.23.62,7.45,7.45,0,0,1-6.11,4.74c-5.71.56-8.14-4.69-8.14-4.69v.09c0,.65-.06,4.79-4.12,6.11-4.43,1.44-7.21-4.22-7.21-4.22s-1.35,4.88-5.4,4.2-2.92-6.66-2.92-6.66,31.92-5.29,54.22-3.8C260.67,356.72,261.59,362.54,258.63,363.64Z" style="opacity:0.05"></path></g><g id="freepik--Trees--inject-36"><path d="M157.83,404.33c-23.58-146.87-47-184.88-47-184.88l-5.47,4.13c22.32,87.94,29.75,159,31.64,180.75Z" style="fill:#263238"></path><g style="opacity:0.8"><path d="M157.83,404.33H137c-.4-4.61-1.05-11.42-2-20.14,0-.33-.08-.66-.11-1-.53-4.56-1.14-9.62-1.85-15.15,0-.33-.09-.66-.13-1q-.68-5.13-1.46-10.77c0-.33-.09-.66-.14-1-.75-5.37-1.59-11.07-2.53-17.06l-.15-1q-1-6.31-2.12-13.06c0-.33-.11-.66-.16-1-.68-4-1.4-8.16-2.15-12.39-.06-.34-.13-.69-.19-1q-1.53-8.52-3.28-17.56c-.06-.33-.13-.66-.2-1q-.8-4.1-1.64-8.3c-.07-.32-.13-.65-.2-1q-1.41-7-3-14.2l-.21-1Q114,260,112.46,253c-.08-.33-.15-.66-.23-1q-1.26-5.55-2.62-11.21c-.07-.32-.15-.64-.23-1q-1.91-8-4-16.25l5.47-4.12s2.92,4.74,7.74,17.36q.18.45.36.93c1.08,2.88,2.27,6.16,3.52,9.86.12.31.22.63.33,1,1.43,4.24,3,9,4.58,14.38.1.32.2.64.29,1,1.38,4.57,2.8,9.55,4.28,15,.09.32.18.64.26,1q1.41,5.22,2.88,11c.08.33.17.66.25,1q1.28,5,2.59,10.52l.24,1q2,8.38,4.08,17.81l.21,1c.71,3.21,1.41,6.52,2.13,9.92l.21,1q2,9.71,4.09,20.44c.06.32.13.65.19,1q1.17,6.13,2.36,12.62l.18,1q1.35,7.35,2.69,15.15l.18,1Q156.15,393.9,157.83,404.33Z" style="fill:#fff"></path></g><path d="M94.94,196.71c-14.23-7.92-33.33,7.71-34.48,30a42.16,42.16,0,0,1,6-3.42c.65-5.64,1.31-10.65,1.31-10.65v10.06c1.16-.52,2.44-1,3.82-1.52l.55-5.45.81,5a47.19,47.19,0,0,1,5.77-1.45l1.4-15.89,2.43,15.34a40.2,40.2,0,0,1,6.05-.17l.78-10.8.8,10.9a38.28,38.28,0,0,1,5.18.8l.71-16.07s.6,9,1.25,16.56A41.88,41.88,0,0,1,111,226.76v-2S107.93,204,94.94,196.71Z" style="fill:#0E630A"></path><path d="M113.2,188.24c9.91-12.93,33.64-6.18,43.59,13.86a42.75,42.75,0,0,0-6.89-.74c-2.84-4.92-5.43-9.25-5.43-9.25l4,9.22c-1.27,0-2.64,0-4.11.14l-2.67-4.79,1.25,4.9a49.5,49.5,0,0,0-5.88,1l-7.6-14,3.87,15a40.91,40.91,0,0,0-5.62,2.25l-5-9.6,3.6,10.32a38.11,38.11,0,0,0-4.44,2.8l-7-14.47s3,8.47,5.44,15.69a42.1,42.1,0,0,0-9.86,11.65l-.78-1.81S104.16,200,113.2,188.24Z" style="fill:#0E630A"></path><path d="M125.68,216.3c-11.57-9.78-19,0-19,0,4.14.76,8,3.1,11.35,6.18l1.33-2v3.27c.81.82,1.6,1.67,2.36,2.55l2.07-5.82-.5,7.71c1.1,1.39,2.13,2.82,3.1,4.25l.68-5.67.46,7.42c1,1.6,2,3.18,2.77,4.68l.44-10.34,1.11,13.25c2,4,3.14,6.78,3.14,6.78S137.26,226.07,125.68,216.3Z" style="fill:#0E630A"></path><path d="M98.28,243.35l2.33,1.12c.2-1.74.45-3.57.74-5.43l-1.72-2.67,2,1c.11-.62.22-1.24.34-1.85l-2.34-5.31,3.07,2c1.22-5,2.92-9.49,5.28-11.74,0,0-24.24,9.72-8.28,35.45,0,0,.14-4.27.73-9.89Z" style="fill:#0E630A"></path><path d="M121.1,219.71l3.43-7.76-1.07,7.9,1.21.13,4.68-6.77-.73,7.46a47.78,47.78,0,0,1,5.3,1.53c1.87.67,3.73,1.45,5.56,2.32l2-6.72-.64,7.4c1.78.9,3.51,1.86,5.18,2.86l.83-5.86.36,6.58c2,1.27,4,2.57,5.79,3.85l-.91-10.43,2.36,11.48c1.84,1.36,3.5,2.66,4.92,3.83l-.33-7.26,2.5,9.07c2.05,1.75,3.23,2.89,3.23,2.89C162,216.91,151.42,207.55,135,206s-27,16.2-27,16.2S112.8,219.48,121.1,219.71Z" style="fill:#0E630A"></path><path d="M75.89,254.14l2,7.45c.58-1.93,1.38-4.41,2.41-7.18l-2.13-11L81.28,252a84.58,84.58,0,0,1,5.78-11.89l-2.87-7.5L88.36,238c.68-1,1.39-2.06,2.13-3l-1.67-4.73,2.33,3.89c.51-.64,1-1.27,1.58-1.87L90.66,226l2.94,5.38a28.57,28.57,0,0,1,4.94-4.14l-3.16-7.69,4.57,6.85a18,18,0,0,1,8-2.29s-5.45-7.51-14.72-9.57S65.73,230.22,76.8,265.71c0,0,.19-.84.6-2.28Z" style="fill:#0E630A"></path><path d="M85.74,182.91l-1.22,4.69a9.66,9.66,0,0,1,1.71.12l1.44-6.1-.8,6.22a13.09,13.09,0,0,1,3.45,1.28l2-8.24-.87,8.89c.43.27.87.57,1.31.91l2.35-7.77-1.59,8.37a32,32,0,0,1,5.94,6.83V187l2.37,15A89.69,89.69,0,0,1,108,216.3S106.64,175.9,96.61,172,82.2,188,82.2,188a5.48,5.48,0,0,1,1.31-.31Z" style="fill:#0E630A"></path><path d="M102.84,226.76l1.42,7.58,2.38-7.58,4.38,5.48,1.16-5.48,4.82,3.49s-1.26-9.71-4.49-13.95S100.82,215.81,102.84,226.76Z" style="fill:#0E630A"></path><g style="opacity:0.6000000000000001"><path d="M94.94,196.71c-14.23-7.92-33.33,7.71-34.48,30a42.16,42.16,0,0,1,6-3.42c.65-5.64,1.31-10.65,1.31-10.65v10.06c1.16-.52,2.44-1,3.82-1.52l.55-5.45.81,5a47.19,47.19,0,0,1,5.77-1.45l1.4-15.89,2.43,15.34a40.2,40.2,0,0,1,6.05-.17l.78-10.8.8,10.9a38.28,38.28,0,0,1,5.18.8l.71-16.07s.6,9,1.25,16.56A41.88,41.88,0,0,1,111,226.76v-2S107.93,204,94.94,196.71Z" style="fill:#fff"></path><path d="M113.2,188.24c9.91-12.93,33.64-6.18,43.59,13.86a42.75,42.75,0,0,0-6.89-.74c-2.84-4.92-5.43-9.25-5.43-9.25l4,9.22c-1.27,0-2.64,0-4.11.14l-2.67-4.79,1.25,4.9a49.5,49.5,0,0,0-5.88,1l-7.6-14,3.87,15a40.91,40.91,0,0,0-5.62,2.25l-5-9.6,3.6,10.32a38.11,38.11,0,0,0-4.44,2.8l-7-14.47s3,8.47,5.44,15.69a42.1,42.1,0,0,0-9.86,11.65l-.78-1.81S104.16,200,113.2,188.24Z" style="fill:#fff"></path><path d="M125.68,216.3c-11.57-9.78-19,0-19,0,4.14.76,8,3.1,11.35,6.18l1.33-2v3.27c.81.82,1.6,1.67,2.36,2.55l2.07-5.82-.5,7.71c1.1,1.39,2.13,2.82,3.1,4.25l.68-5.67.46,7.42c1,1.6,2,3.18,2.77,4.68l.44-10.34,1.11,13.25c2,4,3.14,6.78,3.14,6.78S137.26,226.07,125.68,216.3Z" style="fill:#fff"></path><path d="M98.28,243.35l2.33,1.12c.2-1.74.45-3.57.74-5.43l-1.72-2.67,2,1c.11-.62.22-1.24.34-1.85l-2.34-5.31,3.07,2c1.22-5,2.92-9.49,5.28-11.74,0,0-24.24,9.72-8.28,35.45,0,0,.14-4.27.73-9.89Z" style="fill:#fff"></path><path d="M121.1,219.71l3.43-7.76-1.07,7.9,1.21.13,4.68-6.77-.73,7.46a47.78,47.78,0,0,1,5.3,1.53c1.87.67,3.73,1.45,5.56,2.32l2-6.72-.64,7.4c1.78.9,3.51,1.86,5.18,2.86l.83-5.86.36,6.58c2,1.27,4,2.57,5.79,3.85l-.91-10.43,2.36,11.48c1.84,1.36,3.5,2.66,4.92,3.83l-.33-7.26,2.5,9.07c2.05,1.75,3.23,2.89,3.23,2.89C162,216.91,151.42,207.55,135,206s-27,16.2-27,16.2S112.8,219.48,121.1,219.71Z" style="fill:#fff"></path><path d="M75.89,254.14l2,7.45c.58-1.93,1.38-4.41,2.41-7.18l-2.13-11L81.28,252a84.58,84.58,0,0,1,5.78-11.89l-2.87-7.5L88.36,238c.68-1,1.39-2.06,2.13-3l-1.67-4.73,2.33,3.89c.51-.64,1-1.27,1.58-1.87L90.66,226l2.94,5.38a28.57,28.57,0,0,1,4.94-4.14l-3.16-7.69,4.57,6.85a18,18,0,0,1,8-2.29s-5.45-7.51-14.72-9.57S65.73,230.22,76.8,265.71c0,0,.19-.84.6-2.28Z" style="fill:#fff"></path><path d="M85.74,182.91l-1.22,4.69a9.66,9.66,0,0,1,1.71.12l1.44-6.1-.8,6.22a13.09,13.09,0,0,1,3.45,1.28l2-8.24-.87,8.89c.43.27.87.57,1.31.91l2.35-7.77-1.59,8.37a32,32,0,0,1,5.94,6.83V187l2.37,15A89.69,89.69,0,0,1,108,216.3S106.64,175.9,96.61,172,82.2,188,82.2,188a5.48,5.48,0,0,1,1.31-.31Z" style="fill:#fff"></path><path d="M102.84,226.76l1.42,7.58,2.38-7.58,4.38,5.48,1.16-5.48,4.82,3.49s-1.26-9.71-4.49-13.95S100.82,215.81,102.84,226.76Z" style="fill:#fff"></path></g><path d="M356.65,402.38s-8.37-116.48,37.83-233l-5.57-5s-50.56,87-55.14,239.57Z" style="fill:#263238"></path><g style="opacity:0.8"><path d="M394.48,169.38q-1.32,3.33-2.57,6.66c-.13.31-.25.62-.36.94q-1.74,4.59-3.35,9.17c-.12.32-.23.64-.34.95q-.81,2.31-1.59,4.6c-.11.32-.22.64-.32,1q-1.59,4.71-3.07,9.38l-.3,1q-.94,3-1.84,6c-.09.32-.19.65-.29,1-1.34,4.49-2.61,9-3.8,13.41-.1.32-.18.65-.26,1q-2,7.27-3.68,14.44c-.08.33-.15.65-.23,1-1.35,5.67-2.59,11.29-3.73,16.82-.07.33-.14.65-.2,1q-1.43,6.94-2.64,13.71c-.06.33-.12.66-.17,1q-1.78,10-3.17,19.53c0,.33-.09.66-.14,1q-.46,3.27-.89,6.48c-.05.33-.09.66-.13,1-.68,5.16-1.28,10.2-1.8,15.09,0,.33-.07.67-.1,1q-.69,6.39-1.19,12.42l-.09,1c-.62,7.41-1.08,14.41-1.41,20.91,0,.34,0,.67-.05,1q-.22,4.61-.37,8.86l0,1c-.25,7.63-.33,14.37-.31,20.06,0,.34,0,.67,0,1,.06,12.62.58,19.83.58,19.83L333.77,404q.32-10.5.91-20.58l.06-1q.72-11.83,1.77-23.09c0-.33.06-.66.1-1q.33-3.65.71-7.21c0-.33.07-.67.11-1q1.2-11.29,2.71-21.95c.05-.33.09-.66.14-1q.87-6.15,1.82-12.07c.06-.33.11-.66.16-1q1.53-9.37,3.23-18.19c.06-.33.13-.66.19-1q.57-3,1.16-5.88c.07-.33.14-.65.2-1q2-9.9,4.24-19.06l.24-1q1.56-6.45,3.16-12.5c.09-.33.17-.66.26-1q2.67-10,5.42-19c.09-.32.19-.64.29-1,1.43-4.68,2.87-9.12,4.29-13.34.11-.32.22-.64.32-1,1.85-5.46,3.68-10.53,5.45-15.22.11-.32.23-.63.35-.94.44-1.16.87-2.29,1.3-3.39.12-.32.25-.63.37-.94q2.1-5.36,4-9.93c.13-.31.27-.62.39-.93q.75-1.75,1.47-3.39l.41-1c1.88-4.27,3.57-7.87,5-10.8l.44-.9c2.77-5.64,4.45-8.53,4.45-8.53Z" style="fill:#fff"></path></g><g style="isolation:isolate;opacity:0.2"><path d="M336.61,358.3l19.79,2.19,0,1-19.86-2.2C336.54,359,336.57,358.63,336.61,358.3Z"></path><path d="M356.82,350.63c0,.34,0,.67-.05,1l-19.45-.54c0-.33.07-.67.11-1Z"></path><path d="M340.28,327.15c5.23.49,11.6,1,18,1.56l-.09,1c-6.61-.53-12.92-1.07-18.09-1.58C340.19,327.81,340.23,327.48,340.28,327.15Z"></path><path d="M359.61,315.29c0,.33-.07.67-.1,1l-17.41-1.21c.06-.33.11-.66.16-1Z"></path><path d="M345.68,294.92l15.86,4.29c-.05.33-.09.66-.13,1l-15.92-4.3C345.55,295.57,345.62,295.24,345.68,294.92Z"></path><path d="M362.57,291.74c0,.33-.09.66-.14,1L346.84,289c.07-.33.14-.65.2-1Z"></path><path d="M356.07,382.55l-21.39.84.06-1,21.32-.83C356.06,381.89,356.07,382.22,356.07,382.55Z"></path><path d="M351.52,268l14.39,3.2c-.06.33-.12.66-.17,1L351.28,269Z"></path><path d="M368.75,256.53c-.07.33-.14.65-.2,1l-13.87-2c.09-.33.17-.66.26-1Z"></path><path d="M360.65,234.61l12.06,4.13c-.08.33-.15.65-.23,1l-12.12-4.14C360.45,235.25,360.55,234.93,360.65,234.61Z"></path><path d="M376.65,223.33c-.1.32-.18.65-.26,1l-11.45-3c.11-.32.22-.64.32-1Z"></path><path d="M371.06,204.16l9.68,4.79c-.09.32-.19.65-.29,1l-9.74-4.82C370.82,204.78,370.94,204.47,371.06,204.16Z"></path><path d="M382.88,202l-.3,1-10.22-2.22c.12-.32.25-.63.37-.94Z"></path><path d="M377.15,189c3.05.9,6.2,1.84,9.12,2.73-.11.32-.22.64-.32,1-3.07-.93-6.21-1.87-9.19-2.75C376.89,189.59,377,189.28,377.15,189Z"></path><path d="M388.2,186.15c-.12.32-.23.64-.34.95l-9.24-1.52.41-1Z"></path><path d="M391.91,176c-.13.31-.25.62-.36.94L384,173.83l.44-.9Z"></path></g><path d="M407,138.82c14.43-8,33.79,7.81,35,30.47a42.44,42.44,0,0,0-6.11-3.46c-.66-5.73-1.33-10.8-1.33-10.8v10.19c-1.18-.52-2.47-1-3.88-1.53l-.56-5.53-.82,5.06a49.77,49.77,0,0,0-5.84-1.47L422,145.63l-2.46,15.56a42.78,42.78,0,0,0-6.14-.18l-.79-10.95-.81,11.05a41.77,41.77,0,0,0-5.26.82l-.71-16.3s-.61,9.1-1.27,16.79a42.66,42.66,0,0,0-13.87,6.87v-2S393.8,146.16,407,138.82Z" style="fill:#0E630A"></path><path d="M388.46,130.23c-10-13.11-34.12-6.27-44.21,14.06a43.14,43.14,0,0,1,7-.75c2.88-5,5.51-9.39,5.51-9.39l-4.05,9.36c1.29,0,2.68,0,4.16.13l2.71-4.85-1.26,5a49.13,49.13,0,0,1,6,1L372,130.51l-3.92,15.25a43.37,43.37,0,0,1,5.69,2.29l5.09-9.74-3.65,10.47a37.74,37.74,0,0,1,4.49,2.84l7.14-14.68s-3.06,8.59-5.52,15.91a42.37,42.37,0,0,1,10,11.82l.8-1.84S397.63,142.2,388.46,130.23Z" style="fill:#0E630A"></path><path d="M375.8,158.68c11.74-9.91,19.31,0,19.31,0-4.2.77-8.06,3.14-11.51,6.28l-1.34-2v3.31c-.83.83-1.63,1.69-2.41,2.58l-2.1-5.89.52,7.81c-1.12,1.41-2.17,2.86-3.15,4.31l-.69-5.75-.46,7.52c-1,1.63-2,3.24-2.82,4.75l-.44-10.49-1.13,13.44c-2.06,4-3.18,6.88-3.18,6.88S364.06,168.6,375.8,158.68Z" style="fill:#0E630A"></path><path d="M403.59,186.11l-2.36,1.14c-.21-1.76-.46-3.62-.76-5.51l1.75-2.71-2,1.06c-.11-.63-.22-1.25-.35-1.88l2.38-5.38-3.12,2c-1.23-5.1-3-9.63-5.35-11.9,0,0,24.58,9.85,8.4,36,0,0-.14-4.33-.75-10Z" style="fill:#0E630A"></path><path d="M380.45,162.14,377,154.27l1.09,8c-.41,0-.82.08-1.24.13l-4.74-6.87.74,7.57a46.93,46.93,0,0,0-5.37,1.55,58.44,58.44,0,0,0-5.64,2.35l-2.06-6.81.65,7.5c-1.8.91-3.56,1.88-5.26,2.9l-.84-5.94-.36,6.67c-2.08,1.29-4.05,2.61-5.88,3.91l.93-10.58-2.39,11.64c-1.87,1.38-3.56,2.7-5,3.88l.34-7.36-2.53,9.2c-2.08,1.78-3.28,2.93-3.28,2.93,2.87-25.65,13.57-35.15,30.27-36.72s27.35,16.43,27.35,16.43S388.86,161.91,380.45,162.14Z" style="fill:#0E630A"></path><path d="M426.29,197.05l-2.06,7.56c-.59-2-1.4-4.47-2.45-7.28l2.16-11.12-3.11,8.67A85.4,85.4,0,0,0,415,182.82l2.91-7.61-4.22,5.5c-.69-1.05-1.41-2.09-2.16-3.08l1.69-4.8-2.36,3.94c-.52-.65-1.05-1.28-1.6-1.89l2.09-6.41-3,5.46a28.21,28.21,0,0,0-5-4.2l3.2-7.8-4.63,6.95a18.22,18.22,0,0,0-8.14-2.33s5.53-7.61,14.93-9.7,27.92,16,16.7,52c0,0-.2-.86-.61-2.32Z" style="fill:#0E630A"></path><path d="M416.31,124.82l1.23,4.76a11.22,11.22,0,0,0-1.74.12l-1.45-6.18.81,6.3a13.35,13.35,0,0,0-3.5,1.3l-2-8.36.89,9c-.44.27-.88.58-1.34.93l-2.38-7.89,1.62,8.5a32.12,32.12,0,0,0-6,6.92V128.93L400,144.19a91.39,91.39,0,0,0-6.26,14.49s1.36-41,11.53-44.88S419.9,130,419.9,130a6,6,0,0,0-1.33-.32Z" style="fill:#0E630A"></path><path d="M399,169.29,397.52,177l-2.41-7.69-4.44,5.56-1.17-5.56-4.9,3.54s1.28-9.84,4.56-14.15S401,158.19,399,169.29Z" style="fill:#0E630A"></path><g style="opacity:0.6000000000000001"><path d="M407,138.82c14.43-8,33.79,7.81,35,30.47a42.44,42.44,0,0,0-6.11-3.46c-.66-5.73-1.33-10.8-1.33-10.8v10.19c-1.18-.52-2.47-1-3.88-1.53l-.56-5.53-.82,5.06a49.77,49.77,0,0,0-5.84-1.47L422,145.63l-2.46,15.56a42.78,42.78,0,0,0-6.14-.18l-.79-10.95-.81,11.05a41.77,41.77,0,0,0-5.26.82l-.71-16.3s-.61,9.1-1.27,16.79a42.66,42.66,0,0,0-13.87,6.87v-2S393.8,146.16,407,138.82Z" style="fill:#fff"></path><path d="M388.46,130.23c-10-13.11-34.12-6.27-44.21,14.06a43.14,43.14,0,0,1,7-.75c2.88-5,5.51-9.39,5.51-9.39l-4.05,9.36c1.29,0,2.68,0,4.16.13l2.71-4.85-1.26,5a49.13,49.13,0,0,1,6,1L372,130.51l-3.92,15.25a43.37,43.37,0,0,1,5.69,2.29l5.09-9.74-3.65,10.47a37.74,37.74,0,0,1,4.49,2.84l7.14-14.68s-3.06,8.59-5.52,15.91a42.37,42.37,0,0,1,10,11.82l.8-1.84S397.63,142.2,388.46,130.23Z" style="fill:#fff"></path><path d="M375.8,158.68c11.74-9.91,19.31,0,19.31,0-4.2.77-8.06,3.14-11.51,6.28l-1.34-2v3.31c-.83.83-1.63,1.69-2.41,2.58l-2.1-5.89.52,7.81c-1.12,1.41-2.17,2.86-3.15,4.31l-.69-5.75-.46,7.52c-1,1.63-2,3.24-2.82,4.75l-.44-10.49-1.13,13.44c-2.06,4-3.18,6.88-3.18,6.88S364.06,168.6,375.8,158.68Z" style="fill:#fff"></path><path d="M403.59,186.11l-2.36,1.14c-.21-1.76-.46-3.62-.76-5.51l1.75-2.71-2,1.06c-.11-.63-.22-1.25-.35-1.88l2.38-5.38-3.12,2c-1.23-5.1-3-9.63-5.35-11.9,0,0,24.58,9.85,8.4,36,0,0-.14-4.33-.75-10Z" style="fill:#fff"></path><path d="M380.45,162.14,377,154.27l1.09,8c-.41,0-.82.08-1.24.13l-4.74-6.87.74,7.57a46.93,46.93,0,0,0-5.37,1.55,58.44,58.44,0,0,0-5.64,2.35l-2.06-6.81.65,7.5c-1.8.91-3.56,1.88-5.26,2.9l-.84-5.94-.36,6.67c-2.08,1.29-4.05,2.61-5.88,3.91l.93-10.58-2.39,11.64c-1.87,1.38-3.56,2.7-5,3.88l.34-7.36-2.53,9.2c-2.08,1.78-3.28,2.93-3.28,2.93,2.87-25.65,13.57-35.15,30.27-36.72s27.35,16.43,27.35,16.43S388.86,161.91,380.45,162.14Z" style="fill:#fff"></path><path d="M426.29,197.05l-2.06,7.56c-.59-2-1.4-4.47-2.45-7.28l2.16-11.12-3.11,8.67A85.4,85.4,0,0,0,415,182.82l2.91-7.61-4.22,5.5c-.69-1.05-1.41-2.09-2.16-3.08l1.69-4.8-2.36,3.94c-.52-.65-1.05-1.28-1.6-1.89l2.09-6.41-3,5.46a28.21,28.21,0,0,0-5-4.2l3.2-7.8-4.63,6.95a18.22,18.22,0,0,0-8.14-2.33s5.53-7.61,14.93-9.7,27.92,16,16.7,52c0,0-.2-.86-.61-2.32Z" style="fill:#fff"></path><path d="M416.31,124.82l1.23,4.76a11.22,11.22,0,0,0-1.74.12l-1.45-6.18.81,6.3a13.35,13.35,0,0,0-3.5,1.3l-2-8.36.89,9c-.44.27-.88.58-1.34.93l-2.38-7.89,1.62,8.5a32.12,32.12,0,0,0-6,6.92V128.93L400,144.19a91.39,91.39,0,0,0-6.26,14.49s1.36-41,11.53-44.88S419.9,130,419.9,130a6,6,0,0,0-1.33-.32Z" style="fill:#fff"></path><path d="M399,169.29,397.52,177l-2.41-7.69-4.44,5.56-1.17-5.56-4.9,3.54s1.28-9.84,4.56-14.15S401,158.19,399,169.29Z" style="fill:#fff"></path></g><path d="M119,237.74l-9.34,3c-.07-.32-.15-.64-.23-1l9.21-3Q118.77,237.26,119,237.74Z"></path><path d="M122.8,248.55,112.46,253c-.08-.33-.15-.66-.23-1l10.24-4.4C122.59,247.91,122.69,248.23,122.8,248.55Z"></path><path d="M127.67,263.89l-12,3.8-.21-1,11.88-3.78C127.48,263.25,127.58,263.57,127.67,263.89Z"></path><path d="M132.21,279.83l-13.33,3c-.07-.32-.13-.65-.2-1l13.27-3C132,279.19,132.13,279.51,132.21,279.83Z"></path><path d="M135.34,291.79l-14.62.38c-.06-.33-.13-.66-.2-1l14.57-.37C135.17,291.13,135.26,291.46,135.34,291.79Z"></path><path d="M138.17,303.31l-14,7.46c-.06-.34-.13-.69-.19-1l13.93-7.42Z"></path><path d="M142.46,322.09l-16,2.06c0-.33-.11-.66-.16-1l15.91-2Z"></path><path d="M144.8,333l-16,5.22-.15-1,16-5.2Z"></path><path d="M149.08,354.42l-17.64,1.85c0-.33-.09-.66-.14-1l17.59-1.84C149,353.76,149,354.09,149.08,354.42Z"></path><path d="M151.62,368H133c0-.33-.09-.66-.13-1h18.54Z"></path><path d="M154.49,384.19H135c0-.33-.08-.66-.11-1h19.43Z"></path></g><g id="freepik--speech-bubble--inject-36"><path d="M253.94,126.13h-31.6A10.87,10.87,0,0,0,211.47,137V167.7a10.87,10.87,0,0,0,10.87,10.87h12.59L238.27,190l4-11.47h11.7A10.87,10.87,0,0,0,264.8,167.7V137A10.86,10.86,0,0,0,253.94,126.13Z" style="fill:#0E630A"></path><path d="M227.16,146.19c2.74-4.58,8.12-2.9,10.93.6,2.72-3.57,8-5.39,10.91-.88,4.83,7.61-4.82,14.85-9.38,17.69l-1.3.81c-.36-.21-.8-.46-1.32-.78C232.36,160.91,222.54,153.93,227.16,146.19Z" style="fill:#fff;opacity:0.7000000000000001"></path></g><g id="freepik--character-2--inject-36"><path d="M290.24,198.47s-7.67,11.51,4.08,18.33,13.46,11.28,14,20.28,15.93,13.14,15.93,13.14-.78-10,6.07-7.85,11.45,4.49,11.78-3.71,2.36-19.51,9-17.95,7.07-5.13,7.07-5.13-17.53.12-29.42-2.91c-8.12-2.08-16.73-11.1-16.73-11.1a14.31,14.31,0,0,0-6.29-8.5C301.4,190.56,293.6,190.49,290.24,198.47Z" style="fill:#0E630A"></path><path d="M290.24,198.47s-7.67,11.51,4.08,18.33,13.46,11.28,14,20.28,15.93,13.14,15.93,13.14-.78-10,6.07-7.85,11.45,4.49,11.78-3.71,2.36-19.51,9-17.95,7.07-5.13,7.07-5.13-17.53.12-29.42-2.91c-8.12-2.08-16.73-11.1-16.73-11.1a14.31,14.31,0,0,0-6.29-8.5C301.4,190.56,293.6,190.49,290.24,198.47Z" style="fill:#fff;opacity:0.7000000000000001"></path><path d="M259.22,300.07s-6.26,19.06-3.9,31.66,34.91,29.22,35.81,44c0,0,21-12,26.44,0s11.18,20.15,22.63,9.71,18.42-22.46,24-16.62,25.65.07,31.29-33.09c0,0-57.12-13.2-70.37-29.75S259.22,300.07,259.22,300.07Z" style="fill:#0E630A"></path><path d="M259.22,300.07s-6.26,19.06-3.9,31.66,34.91,29.22,35.81,44c0,0,21-12,26.44,0s11.18,20.15,22.63,9.71,18.42-22.46,24-16.62,25.65.07,31.29-33.09c0,0-57.12-13.2-70.37-29.75S259.22,300.07,259.22,300.07Z" style="fill:#fff;opacity:0.5"></path><path d="M281.88,400.9l-4.4.07c-4.47-21-7.64-47-9.61-66.64-.3-3.07-.59-6-.83-8.7-.12-1.29-.23-2.53-.34-3.72-.52-5.9-.88-10.58-1.1-13.47-.16-2.11-.24-3.27-.24-3.27h15.91l-.15,4.05-.49,13.38-.06,1.53-.33,8.83-.55,15C285.14,369.17,281.88,400.9,281.88,400.9Z" style="fill:#ebb376"></path><path d="M284.29,415.71h-.7l-.29-6.17c-.1-2.09-1.71.36-2.16,2.62s-1.44,4.65-6,4.76c-5.35.12-7.58-.1-6.23-1.41a8.82,8.82,0,0,1,2.76-1.5,10.55,10.55,0,0,0,1.68-2.6,32.9,32.9,0,0,0,2.75-9.33l3.93-1a3.32,3.32,0,0,1,2.49.38,3.28,3.28,0,0,1,1.08,1,1.92,1.92,0,0,1,.25.52,23.28,23.28,0,0,1,.42,2.9A81.47,81.47,0,0,1,284.29,415.71Z" style="fill:#0E630A"></path><path d="M284.29,415.71h-.7l-.29-6.17c-.1-2.09-1.71.36-2.16,2.62s-1.44,4.65-6,4.76c-5.35.12-7.58-.1-6.23-1.41a8.82,8.82,0,0,1,2.76-1.5,10.55,10.55,0,0,0,1.68-2.6,32.9,32.9,0,0,0,2.75-9.33l3.93-1a3.32,3.32,0,0,1,2.49.38,3.28,3.28,0,0,1,1.08,1,1.92,1.92,0,0,1,.25.52,23.28,23.28,0,0,1,.42,2.9A81.47,81.47,0,0,1,284.29,415.71Z" style="fill:#fff;opacity:0.30000000000000004"></path><path d="M283.22,402c-3.22-1-6.8,7-7.47,9.1s-4.11,2.88-4.11,2.88a10.55,10.55,0,0,0,1.68-2.6,32.9,32.9,0,0,0,2.75-9.33,18.32,18.32,0,0,0,.11-7.55l6.16.6,0,2.73a12.72,12.72,0,0,0,.86,4.17Z" style="fill:#ebb376"></path><path d="M346.71,386.09l-3.93,2c-13.24-16.92-27.49-38.9-37.87-55.66q-2.45-3.94-4.57-7.46c-.67-1.11-1.32-2.17-1.93-3.2-3.07-5.07-5.44-9.11-6.91-11.61-1.07-1.83-1.65-2.84-1.65-2.84l14.3-7,1.64,3.71,5.43,12.24.62,1.39,3.58,8.09,6.1,13.75C335.72,356.15,346.71,386.09,346.71,386.09Z" style="fill:#ebb376"></path><path d="M355.37,398.34l-.63.31-3-5.42c-1-1.83-1.38,1.08-.8,3.3s.75,4.82-3.32,6.93c-4.77,2.45-6.86,3.24-6.22,1.47a8.59,8.59,0,0,1,1.82-2.56,10.46,10.46,0,0,0,.36-3.08A32.66,32.66,0,0,0,342,389.7l3.08-2.64a3.26,3.26,0,0,1,2.4-.74,3.21,3.21,0,0,1,1.42.43,1.74,1.74,0,0,1,.45.36,23.45,23.45,0,0,1,1.65,2.42A81.45,81.45,0,0,1,355.37,398.34Z" style="fill:#0E630A"></path><path d="M355.37,398.34l-.63.31-3-5.42c-1-1.83-1.38,1.08-.8,3.3s.75,4.82-3.32,6.93c-4.77,2.45-6.86,3.24-6.22,1.47a8.59,8.59,0,0,1,1.82-2.56,10.46,10.46,0,0,0,.36-3.08A32.66,32.66,0,0,0,342,389.7l3.08-2.64a3.26,3.26,0,0,1,2.4-.74,3.21,3.21,0,0,1,1.42.43,1.74,1.74,0,0,1,.45.36,23.45,23.45,0,0,1,1.65,2.42A81.45,81.45,0,0,1,355.37,398.34Z" style="fill:#fff;opacity:0.30000000000000004"></path><path d="M348.41,386.52c-3.32.54-3.05,9.25-2.72,11.46s-2.43,4.39-2.43,4.39a10.46,10.46,0,0,0,.36-3.08A32.66,32.66,0,0,0,342,389.7a18.41,18.41,0,0,0-3.22-6.83l5.8-2.16,1.21,2.44a12.55,12.55,0,0,0,2.61,3.37Z" style="fill:#ebb376"></path><polygon points="306.15 225.45 309.81 229.53 304.21 238.1 301.76 238.63 306.15 225.45" style="fill:#0E630A"></polygon><polygon points="306.15 225.45 309.81 229.53 304.21 238.1 301.76 238.63 306.15 225.45" style="fill:#fff;opacity:0.5"></polygon><path d="M300,224.67c3.74-2.12,13.15-7.48,16.7-9.61,1.8-1.08,3.64-2.2,5.14-3.29l-.46.45c2.26-3,3.78-7,5.36-10.47s3.46-8.34,4.91-11.82a1.85,1.85,0,0,1,3.53,1c-.85,4.3-2,8.48-3.19,12.68-1.55,4.59-2.66,9.23-5.77,13.19-7.12,5.67-14.76,9.94-22.64,14.33a3.72,3.72,0,0,1-3.58-6.51Z" style="fill:#e9b376"></path><path d="M333.84,192.51l6.3-3.32-3.74-5s-4.73,1.7-4.84,5.84Z" style="fill:#ebb376"></path><polygon points="341.58 186.65 339.31 181.97 336.4 184.22 340.14 189.19 341.58 186.65" style="fill:#ebb376"></polygon><path d="M314.49,225.64c.33,2,2.77,4,0,6.52s-4.6,1.32-5.27,3.83-2.9,2.27-3.82,3.34-1.32,3.1-2.56,4.56-3.31-1-3.31-1S311.07,227.92,309,220l1.1-1.58s4.55-3.62,5.87-1.84S314.16,223.66,314.49,225.64Z" style="fill:#0E630A"></path><path d="M314.49,225.64c.33,2,2.77,4,0,6.52s-4.6,1.32-5.27,3.83-2.9,2.27-3.82,3.34-1.32,3.1-2.56,4.56-3.31-1-3.31-1S311.07,227.92,309,220l1.1-1.58s4.55-3.62,5.87-1.84S314.16,223.66,314.49,225.64Z" style="fill:#fff;opacity:0.6000000000000001"></path><path d="M303.92,235.42c2.56-3.49,6.6-12.45,3.83-15.82l3.45-3.06s1,.39.39,3.26-.39,3.85,1.68,6.18-6,6.48-7.19,8.06.63,3.56-1.22,4.45a7.83,7.83,0,0,0-2.26,1Z" style="fill:#0E630A"></path><path d="M303.92,235.42c2.56-3.49,6.6-12.45,3.83-15.82l3.45-3.06s1,.39.39,3.26-.39,3.85,1.68,6.18-6,6.48-7.19,8.06.63,3.56-1.22,4.45a7.83,7.83,0,0,0-2.26,1Z" style="fill:#fff;opacity:0.7000000000000001"></path><path d="M306.45,229.66s0-4-1.51-4.39-1.41,5.77-1.41,5.77Z" style="isolation:isolate;opacity:0.2"></path><path d="M307.75,220.71s-2.44,10.77-4.9,18.08a0,0,0,0,1,0,0c-.53,1.57-1.06,3-1.56,4.1l0,0a70.48,70.48,0,0,0-6.46,24.14l-23.88-2.57a162.69,162.69,0,0,1,1.13-16.89s-5.49-5.19-2.65-12.28c0,0,.7-3.29.88-4.1a1.09,1.09,0,0,1,0-.19,34.17,34.17,0,0,1,3.8-7.09s3.32-2.31,15.8-.86C296.9,223.91,307.75,220.71,307.75,220.71Z" style="fill:#ebb376"></path><path d="M302.84,238.82c-.53,1.57-1.06,3-1.56,4.1l0,0a70.48,70.48,0,0,0-6.46,24.14l-23.88-2.57a162.69,162.69,0,0,1,1.13-16.89s-5.49-5.19-2.65-12.28c0,0,.7-3.29.88-4.1l1.38-.64s2.06,12.69,19.47,20.09C291.13,250.69,300,244.6,302.84,238.82Z" style="fill:#0E630A"></path><path d="M302.84,238.82c-.53,1.57-1.06,3-1.56,4.1l0,0a70.48,70.48,0,0,0-6.46,24.14l-23.88-2.57a162.69,162.69,0,0,1,1.13-16.89s-5.49-5.19-2.65-12.28c0,0,.7-3.29.88-4.1l1.38-.64s2.06,12.69,19.47,20.09C291.13,250.69,300,244.6,302.84,238.82Z" style="fill:#fff;opacity:0.5"></path><g style="opacity:0.2"><path d="M289.11,259.92c.28-.72,1.47,1,1.47,1s.57-1.62,1.19-1.29c.31.17-1.17,1.42-1.17,1.42S289,260.21,289.11,259.92Z"></path><path d="M289.11,258.12c.35-.69,1.38,1.17,1.38,1.17s.71-1.56,1.3-1.18c.3.2-1.29,1.31-1.29,1.31S289,258.41,289.11,258.12Z"></path><path d="M289.09,256.41c.34-.7,1.37,1.16,1.37,1.16s.72-1.56,1.3-1.18c.3.2-1.29,1.31-1.29,1.31S289,256.69,289.09,256.41Z"></path><path d="M289.11,254.67c.36-.69,1.36,1.18,1.36,1.18s.74-1.55,1.32-1.16c.29.2-1.31,1.3-1.31,1.3S289,255,289.11,254.67Z"></path><path d="M289.45,252.86c.4-.66,1.27,1.28,1.27,1.28s.84-1.5,1.39-1.07c.29.22-1.39,1.2-1.39,1.2S289.28,253.13,289.45,252.86Z"></path><path d="M289.87,251.1c.44-.64,1.2,1.34,1.2,1.34s.93-1.45,1.45-1c.27.23-1.45,1.12-1.45,1.12S289.69,251.36,289.87,251.1Z"></path></g><path d="M270.28,231.24s-2.67,4-1.7,4.78,2.86-.39,3.75,2.38.4,5.24,2.18,6.23,3.46-.49,4.74,1.29,2.67,7.9,5.88,9.19,5.68-2.67,5.68-2.67.94,3.88,4.58,2.93,2.62-6.55,4.12-8.3,5.27-2,4.23-11c0,0-6.49,11-12.42,14a49.18,49.18,0,0,1-19.41-19.79Z" style="fill:#0E630A"></path><path d="M270.28,231.24s-2.67,4-1.7,4.78,2.86-.39,3.75,2.38.4,5.24,2.18,6.23,3.46-.49,4.74,1.29,2.67,7.9,5.88,9.19,5.68-2.67,5.68-2.67.94,3.88,4.58,2.93,2.62-6.55,4.12-8.3,5.27-2,4.23-11c0,0-6.49,11-12.42,14a49.18,49.18,0,0,1-19.41-19.79Z" style="fill:#fff;opacity:0.6000000000000001"></path><path d="M271.91,230.21s-1.31,4,0,5.9,2.91,1.66,5,3.6,1,3.73,2.86,5.71,3.53.69,5.38,1.28,1.67,4.16,3,5.15,3-1.16,3-1.16a2.4,2.4,0,0,0,2.2,1.39c1.63,0,1.65-3.5,2.54-4.39s2.47.51,4.1-1.77,1.26-4,1.79-5.28a4.25,4.25,0,0,1,2.61-2.11c1-.43-.45-3.11-.45-3.11s-8.74,11.37-12.6,13.42C291.32,248.84,282.67,244.18,271.91,230.21Z" style="fill:#0E630A"></path><path d="M271.91,230.21s-1.31,4,0,5.9,2.91,1.66,5,3.6,1,3.73,2.86,5.71,3.53.69,5.38,1.28,1.67,4.16,3,5.15,3-1.16,3-1.16a2.4,2.4,0,0,0,2.2,1.39c1.63,0,1.65-3.5,2.54-4.39s2.47.51,4.1-1.77,1.26-4,1.79-5.28a4.25,4.25,0,0,1,2.61-2.11c1-.43-.45-3.11-.45-3.11s-8.74,11.37-12.6,13.42C291.32,248.84,282.67,244.18,271.91,230.21Z" style="fill:#fff;opacity:0.7000000000000001"></path><path d="M259.22,300.07s-6.26,19.06-3.9,31.66,34.91,29.22,35.81,44c0,0,21-12,26.44,0s11.18,20.15,22.63,9.71,18.42-22.46,24-16.62,25.65.07,31.29-33.09c0,0-57.12-13.2-70.37-29.75S259.22,300.07,259.22,300.07Z" style="fill:#fff;opacity:0.4"></path><path d="M260,320.58a10.19,10.19,0,0,0-1,7.86c1.32,4.14,2.64.71,4.88,2.82s.53,6.07,3.3,7.78,2.5-1.71,4.61.66,1.72,7.65,4.75,7,5.67-1.32,7.12,2.77,2.9,8.69,5.67,6.85,4.62-2.6,6.6.42,2.37,7.11,5.53,6.71,4.62-2.72,6.2,0,4.86,7,7.31,5.77,3-3,4.79-.39,4.78,7.38,7,6.72,1.85-3,4.09-2.64,2.23,2.77,5.73,2.7.46-5.2,4.81-4.94,5.42,1.06,5.75-1.71-2.17-7.69,0-9.52,2.15-.24,6.44,1.08,1.49-4.62,4.81-1.19,7.09,4.41,9.43,2.14.88-.25,5.89.45,5.7-1,5.27-3.64,3.55-2.11,4.22-4.75-3.82-2.9-2.9-6.86,2.9-2.77,3.82-6.06-3.06-3.19-2.5-5.81,2.64-3.21,5-5.1,4.88-6.2,3.82-7.69,1.07-3.55,4.1-6.19-1.59-5.28-1.19-7.52.36-4.48-3.85-5.54S260,320.58,260,320.58Z" style="fill:#0E630A"></path><path d="M260,320.58a10.19,10.19,0,0,0-1,7.86c1.32,4.14,2.64.71,4.88,2.82s.53,6.07,3.3,7.78,2.5-1.71,4.61.66,1.72,7.65,4.75,7,5.67-1.32,7.12,2.77,2.9,8.69,5.67,6.85,4.62-2.6,6.6.42,2.37,7.11,5.53,6.71,4.62-2.72,6.2,0,4.86,7,7.31,5.77,3-3,4.79-.39,4.78,7.38,7,6.72,1.85-3,4.09-2.64,2.23,2.77,5.73,2.7.46-5.2,4.81-4.94,5.42,1.06,5.75-1.71-2.17-7.69,0-9.52,2.15-.24,6.44,1.08,1.49-4.62,4.81-1.19,7.09,4.41,9.43,2.14.88-.25,5.89.45,5.7-1,5.27-3.64,3.55-2.11,4.22-4.75-3.82-2.9-2.9-6.86,2.9-2.77,3.82-6.06-3.06-3.19-2.5-5.81,2.64-3.21,5-5.1,4.88-6.2,3.82-7.69,1.07-3.55,4.1-6.19-1.59-5.28-1.19-7.52.36-4.48-3.85-5.54S260,320.58,260,320.58Z" style="fill:#fff;opacity:0.8"></path><path d="M383.43,327.7c-7.18,7.84-1.34,27.18-6.73,30.58s-22.46-2.95-28.3-2c-2.1.34-3.33,3-4,6.16a12,12,0,0,1-15.73,8.82c-34.68-12.86-67.49-41.13-68.38-47.75-1-7.55,1-9.51-5.28-23.45s16.17-38.89,16.17-38.89c14-3.21,23.45-.27,24.21,0l0,0s29.19,31.72,43.12,34.87,14.82-9.88,25.72-7.83,26.38,13.47,26.38,13.47C394.21,315.85,390.62,319.84,383.43,327.7Z" style="fill:#0E630A"></path><path d="M383.43,327.7c-7.18,7.84-1.34,27.18-6.73,30.58s-22.46-2.95-28.3-2c-2.1.34-3.33,3-4,6.16a12,12,0,0,1-15.73,8.82c-34.68-12.86-67.49-41.13-68.38-47.75-1-7.55,1-9.51-5.28-23.45s16.17-38.89,16.17-38.89c14-3.21,23.45-.27,24.21,0l0,0s29.19,31.72,43.12,34.87,14.82-9.88,25.72-7.83,26.38,13.47,26.38,13.47C394.21,315.85,390.62,319.84,383.43,327.7Z" style="fill:#fff;opacity:0.30000000000000004"></path><path d="M371.73,289.53c3.25,1,11.32,5.23,11.4,7.16s-17.46,3.51-17.46,3.51,8.21,3.57,9.51,9.31S369,324,358.87,323.15c0,0,8,12.23-.27,22.14S331,348.08,331,348.08s5.1,12-7,13.86-33.82-10.37-42.22-28.3c0,0-7.32,5.42-15.24-3.92s-10.28-29.52-10.28-29.52,37.62,25.37,57.41,23.94,37.23-29.22,37.23-29.22S359.26,285.57,371.73,289.53Z" style="fill:#0E630A"></path><path d="M371.73,289.53c3.25,1,11.32,5.23,11.4,7.16s-17.46,3.51-17.46,3.51,8.21,3.57,9.51,9.31S369,324,358.87,323.15c0,0,8,12.23-.27,22.14S331,348.08,331,348.08s5.1,12-7,13.86-33.82-10.37-42.22-28.3c0,0-7.32,5.42-15.24-3.92s-10.28-29.52-10.28-29.52,37.62,25.37,57.41,23.94,37.23-29.22,37.23-29.22S359.26,285.57,371.73,289.53Z" style="fill:#fff;opacity:0.4"></path><path d="M256.56,303.76s10.95,15,36,35.81,47.67,14.77,30.42-14c0,0,18.47,11.34,30.54-1.32s-4.28-20.51-4.28-20.51,9-14.53,21.92-13.36-3-8.72-13-4.89c-5.71,2.2-11.13,12.78-24.4,6.19-12-5.95-38.42-30.55-38.42-30.55-11-3.64-24.21,0-24.21,0s-17.28,17.52-17.24,32.3C253.9,293.47,253,299.62,256.56,303.76Z" style="fill:#0E630A"></path><path d="M256.56,303.76s10.95,15,36,35.81,47.67,14.77,30.42-14c0,0,18.47,11.34,30.54-1.32s-4.28-20.51-4.28-20.51,9-14.53,21.92-13.36-3-8.72-13-4.89c-5.71,2.2-11.13,12.78-24.4,6.19-12-5.95-38.42-30.55-38.42-30.55-11-3.64-24.21,0-24.21,0s-17.28,17.52-17.24,32.3C253.9,293.47,253,299.62,256.56,303.76Z" style="fill:#fff;opacity:0.5"></path><g style="isolation:isolate;opacity:0.2"><path d="M321.29,323.65a.45.45,0,0,1-.32-.14c-.07-.08-7.23-7.86-26.78-25.63-19.31-17.55-11.53-32.25-11.45-32.39a.43.43,0,0,1,.58-.17.43.43,0,0,1,.17.58c-.08.14-7.52,14.27,11.28,31.35,19.58,17.8,26.76,25.61,26.83,25.68a.42.42,0,0,1,0,.6A.39.39,0,0,1,321.29,323.65Z" style="fill:#fff;isolation:isolate"></path><path d="M347.07,304a.45.45,0,0,1-.19-.05c-1.85-.91-4.41-1.21-7.36-1.56-6.2-.73-14.69-1.72-23.47-9.33-6.75-5.87-9.72-12-12.34-17.43-2.38-4.92-4.43-9.17-8.76-12a.43.43,0,0,1,.47-.71c4.53,3,6.63,7.31,9.06,12.35,2.58,5.34,5.51,11.4,12.13,17.15,8.58,7.44,16.92,8.42,23,9.13,3,.36,5.65.67,7.64,1.65a.43.43,0,0,1-.19.81Z" style="fill:#fff;isolation:isolate"></path><path d="M312.31,339.91c-8.87,0-22-8.45-22.69-8.88a.43.43,0,0,1,.47-.72c.19.13,19.14,12.31,26.47,7.73,2.38-1.5,3.29-4.71,2.69-9.55a.42.42,0,0,1,.36-.47.42.42,0,0,1,.48.37c.65,5.19-.39,8.68-3.08,10.37A8.79,8.79,0,0,1,312.31,339.91Z" style="fill:#fff;isolation:isolate"></path><path d="M301,328c-7.73,0-17.75-4.19-18.31-4.43a.43.43,0,0,1,.34-.78c.17.07,17.89,7.48,24,2.81,1.67-1.27,2.33-3.4,1.95-6.32a.42.42,0,0,1,.36-.48.43.43,0,0,1,.48.37c.43,3.24-.34,5.63-2.28,7.11A10.88,10.88,0,0,1,301,328Z" style="fill:#fff;isolation:isolate"></path><path d="M285.81,319.47c-1.68,0-3.37-.06-5-.18-2.53-.18-5.12-.59-6.87-2.35a.42.42,0,0,1,.6-.6c1.56,1.56,4,1.94,6.33,2.1,2,.15,4.09.21,6.14.17a9.81,9.81,0,0,0,2.56-.28,9,9,0,0,0,2.45-1.26,11.73,11.73,0,0,0,3.93-3.95,5.53,5.53,0,0,0,.26-5.19.43.43,0,0,1,.75-.41,6.36,6.36,0,0,1-.26,6,12.54,12.54,0,0,1-4.21,4.26,9.58,9.58,0,0,1-2.69,1.37,10.36,10.36,0,0,1-2.78.31Z" style="fill:#fff"></path><path d="M275.18,310.56a17.63,17.63,0,0,1-9.91-3,.44.44,0,0,1-.11-.6.43.43,0,0,1,.59-.11,16.79,16.79,0,0,0,14.74,2,10.12,10.12,0,0,0,4.63-3,5.7,5.7,0,0,0,1.25-5,.44.44,0,0,1,.29-.53.43.43,0,0,1,.53.3,6.58,6.58,0,0,1-1.41,5.81,11,11,0,0,1-5,3.24A17.12,17.12,0,0,1,275.18,310.56Z" style="fill:#fff"></path><path d="M269.82,301.47h-.16a12.87,12.87,0,0,1-3.67-.74c-3.87-1.25-6.15-3-7-5.45a.42.42,0,0,1,.27-.54.42.42,0,0,1,.54.26c.73,2.15,2.83,3.76,6.43,4.92a12.09,12.09,0,0,0,3.41.69c2.7.05,5.26-1.45,7.34-2.66a7.1,7.1,0,0,0,1.85-1.38,6.82,6.82,0,0,0,1-2.09,7.3,7.3,0,0,1,1.25-2.39.42.42,0,0,1,.6,0,.44.44,0,0,1,0,.6,6.5,6.5,0,0,0-1.09,2.13,5.79,5.79,0,0,1-3.26,3.9C275.31,299.93,272.67,301.47,269.82,301.47Z" style="fill:#fff"></path><path d="M272.2,290.08a17.84,17.84,0,0,1-2.07-.14q-1.32-.13-2.64-.33a11.76,11.76,0,0,1-4.11-1.15,4.62,4.62,0,0,1-2.5-3.59.43.43,0,0,1,.86-.05,3.77,3.77,0,0,0,2.06,2.89,10.67,10.67,0,0,0,3.81,1.06c.87.12,1.74.23,2.62.33a8.26,8.26,0,0,0,4.67-.43c1.69-.87,2.59-2.77,3.43-4.81a.43.43,0,1,1,.79.33c-.91,2.19-1.89,4.24-3.83,5.24A6.64,6.64,0,0,1,272.2,290.08Z" style="fill:#fff"></path><path d="M270.7,280.42a5.94,5.94,0,0,1-4.19-1.21,4.78,4.78,0,0,1-1.35-3,.43.43,0,0,1,.85-.1,4.1,4.1,0,0,0,1.08,2.49c.93.88,2.42,1,3.75,1a5.61,5.61,0,0,0,1.31-.11c1.29-.29,2.26-1.32,3.31-2.54a.43.43,0,0,1,.6,0,.42.42,0,0,1,0,.6,7.61,7.61,0,0,1-3.76,2.81,6.82,6.82,0,0,1-1.49.13Z" style="fill:#fff"></path><path d="M333.82,324.17c-1.39,0-2.76-.09-4.06-.18s-2.91-.27-3.86-1.33a.43.43,0,1,1,.64-.57c.73.83,2,1,3.28,1.05,3.15.21,6.72.44,9.88-.67a18.48,18.48,0,0,0,3.55-1.77,8.73,8.73,0,0,0,3.52-3.34,6,6,0,0,0-.23-5.2,12.72,12.72,0,0,0-3.61-4.2.42.42,0,0,1-.07-.6.44.44,0,0,1,.6-.06,13.56,13.56,0,0,1,3.85,4.49,7,7,0,0,1,.23,5.94,9.64,9.64,0,0,1-3.85,3.7,16.51,16.51,0,0,1-9.87,2.74Z" style="fill:#fff"></path><path d="M325.31,317.25a7.09,7.09,0,0,1-3.83-1.09.42.42,0,0,1-.13-.59.44.44,0,0,1,.59-.13,6.55,6.55,0,0,0,5.57.6A8.58,8.58,0,0,0,332,312.4a6,6,0,0,0,1.07-3.47,9.06,9.06,0,0,0-1.88-4.3.42.42,0,0,1,.12-.59.44.44,0,0,1,.59.12,9.83,9.83,0,0,1,2,4.73,6.89,6.89,0,0,1-1.19,4,9.49,9.49,0,0,1-4.93,4A7.79,7.79,0,0,1,325.31,317.25Z" style="fill:#fff"></path><path d="M315.19,308.69a3.1,3.1,0,0,1-1-.17.42.42,0,1,1,.28-.8c1,.33,2.14,0,3.62-1.09a9.77,9.77,0,0,0,2.53-2.43,4.26,4.26,0,0,0,.74-3.17.42.42,0,0,1,.33-.5.42.42,0,0,1,.5.32,5.07,5.07,0,0,1-.86,3.82,10.68,10.68,0,0,1-2.74,2.66A6.09,6.09,0,0,1,315.19,308.69Z" style="fill:#fff"></path><path d="M305.52,301.28l-.79,0-2.33-.11a.43.43,0,0,1-.41-.44.44.44,0,0,1,.45-.41l2.32.1a5.93,5.93,0,0,0,2-.12,4,4,0,0,0,2.47-2.92,12.48,12.48,0,0,0,.07-4.27.43.43,0,0,1,.85-.08,13.23,13.23,0,0,1-.1,4.56,4.74,4.74,0,0,1-3,3.53A5.22,5.22,0,0,1,305.52,301.28Z" style="fill:#fff"></path><path d="M298.6,292.57a22.88,22.88,0,0,1-4.35-.53c-1-.18-1.5-.59-1.59-1.21a.43.43,0,0,1,.36-.48.43.43,0,0,1,.48.36c0,.29.59.44.91.5,2.51.49,5.15.89,7.38-.09a6.3,6.3,0,0,0,3.68-4.89.43.43,0,0,1,.48-.37.43.43,0,0,1,.37.48,7.23,7.23,0,0,1-4.19,5.57A8.89,8.89,0,0,1,298.6,292.57Z" style="fill:#fff"></path><path d="M295.09,284.09h-3.46a9.06,9.06,0,0,1-3-.34,3.34,3.34,0,0,1-2.24-2.24.43.43,0,0,1,.83-.2,2.52,2.52,0,0,0,1.69,1.64,8.36,8.36,0,0,0,2.7.29h3.44c1.44,0,2.89-.08,3.76-1a5.13,5.13,0,0,0,.92-1.71l1.19-3.11a.43.43,0,0,1,.8.3l-1.19,3.11a5.75,5.75,0,0,1-1.11,2C298.35,284,296.69,284.09,295.09,284.09Z" style="fill:#fff"></path><path d="M291.08,275.73a8.34,8.34,0,0,1-2.93-.43,4,4,0,0,1-2.52-2.49.43.43,0,0,1,.28-.53.42.42,0,0,1,.53.29,3.24,3.24,0,0,0,2,1.93,8.06,8.06,0,0,0,3.08.37,7.79,7.79,0,0,0,3-.49,3,3,0,0,0,1.82-2,5,5,0,0,0,.09-.66,3.71,3.71,0,0,1,.24-1.2.43.43,0,0,1,.56-.22.42.42,0,0,1,.22.56,3,3,0,0,0-.17.93,6.66,6.66,0,0,1-.11.78,3.85,3.85,0,0,1-2.31,2.55,8.71,8.71,0,0,1-3.27.57Z" style="fill:#fff"></path><path d="M350.65,296.52a.41.41,0,0,1-.38-.23.42.42,0,0,1,.18-.57,16.93,16.93,0,0,0,6.27-5.58,3.2,3.2,0,0,0,.78-2.65.42.42,0,0,1,.81-.25,4.13,4.13,0,0,1-.88,3.38,17.84,17.84,0,0,1-6.59,5.85A.34.34,0,0,1,350.65,296.52Z" style="fill:#fff"></path><path d="M341.57,300.41a.44.44,0,0,1-.42-.33.43.43,0,0,1,.32-.51,10.49,10.49,0,0,0,4.23-1.92,7.35,7.35,0,0,0,2.58-3.71.42.42,0,0,1,.52-.3.44.44,0,0,1,.3.53,8.12,8.12,0,0,1-2.88,4.15,11.33,11.33,0,0,1-4.56,2.08Z" style="fill:#fff"></path><path d="M331.46,299.25a.43.43,0,0,1-.42-.37.41.41,0,0,1,.35-.48,11.36,11.36,0,0,0,6-3,.43.43,0,0,1,.59.62,12.15,12.15,0,0,1-6.5,3.19Z" style="fill:#fff"></path><path d="M321,294.68a.42.42,0,0,1-.42-.42.42.42,0,0,1,.42-.43,22.05,22.05,0,0,0,8.13-1.64.43.43,0,0,1,.33.79,22.92,22.92,0,0,1-8.45,1.7Z" style="fill:#fff"></path><path d="M318.27,289.53a7.21,7.21,0,0,1-2.88-.55.41.41,0,0,1-.22-.55.42.42,0,0,1,.55-.23,7.35,7.35,0,0,0,4,.36,22.81,22.81,0,0,0,4-1.15.43.43,0,0,1,.28.81,23.51,23.51,0,0,1-4.2,1.18A11.08,11.08,0,0,1,318.27,289.53Z" style="fill:#fff"></path><path d="M312,283.59a4.42,4.42,0,0,1-1.51-.24.42.42,0,0,1-.26-.54.42.42,0,0,1,.54-.26,6.53,6.53,0,0,0,3.36-.09,8.79,8.79,0,0,1,3.27-.23.43.43,0,1,1-.15.84,7.9,7.9,0,0,0-2.95.22A12,12,0,0,1,312,283.59Z" style="fill:#fff"></path><path d="M309.51,277.52a4.91,4.91,0,0,1-2.4-.63.41.41,0,0,1-.16-.58.42.42,0,0,1,.58-.16,4,4,0,0,0,2.49.49.42.42,0,0,1,.48.36.43.43,0,0,1-.37.48A4.3,4.3,0,0,1,309.51,277.52Z" style="fill:#fff"></path></g><path d="M284.94,202.4c-.15.47-.52.79-.83.72s-.43-.52-.28-1,.52-.79.83-.72S285.09,201.93,284.94,202.4Z" style="fill:#263238"></path><path d="M284.78,201.47l-1-.6S284.06,201.9,284.78,201.47Z" style="fill:#263238"></path><path d="M284.41,203.28a14.25,14.25,0,0,1-2.59,2.64,2,2,0,0,0,1.58.7Z" style="fill:#d58745"></path><path d="M284.86,199.51a.25.25,0,0,1,0-.21.29.29,0,0,1,.35-.2,3,3,0,0,1,2.14,1.61.27.27,0,0,1-.17.36.31.31,0,0,1-.38-.17,2.43,2.43,0,0,0-1.71-1.26A.33.33,0,0,1,284.86,199.51Z" style="fill:#263238"></path><path d="M294.56,216.71l-.24.09a9.61,9.61,0,0,1-3.7.64c-3.64-.2-5.85-1.35-6.92-3.34h0c-1.46-2.94-.8-7.21.94-12.08a19.56,19.56,0,0,1,2.76-5.48l0-.08c.05-.05.1-.13.15-.19a7.05,7.05,0,0,1,6.17-2.69,14.59,14.59,0,0,1,3,.52C306.48,196.81,303.58,213.33,294.56,216.71Z" style="fill:#ebb376"></path><path d="M294.32,216.8a9.56,9.56,0,0,1-3.66.51c-3.65-.21-5.81-1.46-6.88-3.48a10,10,0,0,0,6.28,1.28A5.26,5.26,0,0,1,294.32,216.8Z" style="isolation:isolate;opacity:0.2"></path><path d="M295.52,224.16c.79,2.82-2.85,4.21-2.85,4.21-6.22-2.23-7.54-5.39-7.54-5.39,4.91-2.94,3-10.31,3-10.31l1.06.44,7.31,1s-1.78,4-2,4.85c0,0,0,0,0,0C293.41,223.64,295.52,224.16,295.52,224.16Z" style="fill:#ebb376"></path><path d="M287.41,196.48s-2.5,6.63,3.08,11.4c0,0,.72,7.85,4.75,9.13,5.5,1.74,12.67-4.73,13.08-13.31C308.85,192.57,293.32,187.15,287.41,196.48Z" style="fill:#263238"></path><path d="M287.8,205c.31-1.06,1.67-2.59,3.25-1.87s1.35,5.21-3.1,4.94C287.31,208,287.15,207.2,287.8,205Z" style="fill:#ebb376"></path><path d="M301.31,192.69s-6-3.51-10.33-1.94c-5.06,1.82-7.55,4.51-4,10.82,0,0,11.88-.37,15.28,1.42a40.28,40.28,0,0,1,5.67,3.6C310.75,199.63,305.35,192.27,301.31,192.69Z" style="fill:#263238"></path><path d="M286.92,212.54a2,2,0,0,1-1-.26,2.59,2.59,0,0,1-.6-3.57,2.71,2.71,0,0,1,3-1.45.12.12,0,0,1,.08.15.12.12,0,0,1-.15.09,2.48,2.48,0,0,0-2.68,1.33,2.11,2.11,0,1,0,3.57,2.06,2.52,2.52,0,0,0,0-2.83.12.12,0,0,1,0-.18.12.12,0,0,1,.17,0,2.79,2.79,0,0,1,.07,3.12A2.9,2.9,0,0,1,286.92,212.54Z" style="fill:#fff"></path><path d="M290.24,198.47s-7.67,11.51,4.08,18.33,13.46,11.28,14,20.28,15.93,13.14,15.93,13.14-.78-10,6.07-7.85,11.45,4.49,11.78-3.71,2.36-19.51,9-17.95,7.07-5.13,7.07-5.13-17.53.12-29.42-2.91c-8.12-2.08-16.73-11.1-16.73-11.1a14.31,14.31,0,0,0-6.29-8.5C301.4,190.56,293.6,190.49,290.24,198.47Z" style="fill:#fff;opacity:0.4"></path><path d="M306.52,191.57c7-1.12,11.05,8.52,4.15,13.38-2.3,1.63-7.21-.51-8.91-3.73A6.59,6.59,0,0,1,306.52,191.57Z" style="fill:#263238"></path><path d="M292,196.61s1.78-2.44,2.36-.84-1.47,2-1.47,2,2.24,1.1,1.47,1.94-2.36-.64-2.36-.64.92,1.92-.69,2-1-2-1-2-1.83,1-2.09,0,2.09-1.38,2.09-1.38-1.51-1.68,0-2.48S292,196.61,292,196.61Z" style="fill:#fff"></path><path d="M291.49,197.12c.84,0,.46,1.83-.43,1.37S290.64,197.12,291.49,197.12Z" style="fill:#0E630A"></path><path d="M296,192.18s1.72-2,2.12-.58-1.42,1.68-1.42,1.68,1.9,1.1,1.16,1.79-2-.71-2-.71.67,1.74-.74,1.7-.75-1.81-.75-1.81-1.68.8-1.84-.14,1.93-1.08,1.93-1.08-1.22-1.57.16-2.18S296,192.18,296,192.18Z" style="fill:#fff"></path><path d="M295.55,192.59c.74.06.29,1.64-.46,1.19S294.81,192.54,295.55,192.59Z" style="fill:#0E630A"></path><path d="M301,191s1.77-.16,1.25.71-1.47.14-1.47.14.32,1.39-.34,1.38-.58-1.27-.58-1.27-.54,1.13-1.16.46.54-1.21.54-1.21-1.16-.39-.77-.91,1.4.38,1.4.38.21-1.31,1.14-1S301,191,301,191Z" style="fill:#fff"></path><path d="M300.62,191c.31.37-.67.9-.79.34S300.31,190.65,300.62,191Z" style="fill:#0E630A"></path><path d="M307.62,205.5c0-.09.5-1.69-.55-1.73s.34,1.59.34,1.59-1.48-.33-1.31.6S307.62,205.5,307.62,205.5Z" style="fill:#fff"></path><path d="M306.4,205c0-.1.5-1.69-.56-1.73s.34,1.59.34,1.59-1.47-.33-1.3.6S306.4,205,306.4,205Z" style="fill:#fff"></path><path d="M304.84,204.35c0-.1.75-1.6-.29-1.8s.11,1.62.11,1.62-1.42-.54-1.39.4S304.84,204.35,304.84,204.35Z" style="fill:#fff"></path><path d="M303.37,203.24c.05-.09,1-1.47,0-1.82s-.16,1.61-.16,1.61-1.31-.75-1.43.18S303.37,203.24,303.37,203.24Z" style="fill:#fff"></path><path d="M302.19,201.91c.07-.08,1.26-1.25.35-1.79s-.46,1.56-.46,1.56-1.14-1-1.44-.11S302.19,201.91,302.19,201.91Z" style="fill:#fff"></path><path d="M301.29,200.45c.09-.06,1.47-1,.69-1.68s-.76,1.44-.76,1.44-.93-1.2-1.39-.37S301.29,200.45,301.29,200.45Z" style="fill:#fff"></path><path d="M301.17,198.5c.09,0,1.61-.71,1-1.54s-1,1.29-1,1.29-.71-1.34-1.3-.61S301.17,198.5,301.17,198.5Z" style="fill:#fff"></path><path d="M301.26,196.76c.1,0,1.74-.31,1.3-1.27s-1.27,1-1.27,1-.37-1.47-1.12-.9S301.26,196.76,301.26,196.76Z" style="fill:#fff"></path><path d="M301.69,194.83c.1,0,1.76,0,1.52-1s-1.44.75-1.44.75-.08-1.51-.92-1.1S301.69,194.83,301.69,194.83Z" style="fill:#fff"></path><path d="M276.38,229.66s1.78,3.83.51,6.56S273.15,235.66,276.38,229.66Z" style="isolation:isolate;opacity:0.2"></path><path d="M278.69,228.58c-3.08,8.47-6.07,16.68-10.52,24.61-3.41,3.71-7.83,5.54-12.1,7.81-4,1.89-7.91,3.65-12,5.17a1.85,1.85,0,0,1-1.59-3.32c3.23-2,7.75-4.7,10.88-6.73s6.88-4.25,9.48-7l-.37.53c.83-1.66,1.64-3.66,2.43-5.6,1.52-3.81,5.34-14.06,6.81-18a3.72,3.72,0,0,1,7,2.52Z" style="fill:#e9b376"></path><path d="M242.93,262.72l-7.09.54,1.46,6.05s5,.32,6.76-3.44Z" style="fill:#ebb376"></path><polygon points="233.5 265.02 233.72 270.23 237.29 269.31 235.84 263.26 233.5 265.02" style="fill:#ebb376"></polygon><path d="M266.3,234.87s-3.93,4.41-3.27,6.29c1,2.73,4.27-1.86,5.55-1.16s.82.73,1.62,3.89,4.79.64,7.17,1.09l-1.78-7.38Z" style="fill:#0E630A"></path><path d="M266.3,234.87s-3.93,4.41-3.27,6.29c1,2.73,4.27-1.86,5.55-1.16s.82.73,1.62,3.89,4.79.64,7.17,1.09l-1.78-7.38Z" style="fill:#fff;opacity:0.6000000000000001"></path><path d="M276.89,236.22l-.5,3.07c-1-1-3.86.29-5.95,0s-1.47-1.78-2.07-3.27-4.05.89-4.36.6,2.88-3.57,2.88-3.57C268.58,232.16,274.87,232.59,276.89,236.22Z" style="fill:#0E630A"></path><path d="M276.89,236.22l-.5,3.07c-1-1-3.86.29-5.95,0s-1.47-1.78-2.07-3.27-4.05.89-4.36.6,2.88-3.57,2.88-3.57C268.58,232.16,274.87,232.59,276.89,236.22Z" style="fill:#fff;opacity:0.7000000000000001"></path><path d="M271.06,260.35l-1.85,2.91s21.82-3.68,27.92-.54l-1.35-3S278.72,257,271.06,260.35Z" style="fill:#0E630A"></path><path d="M271.06,260.35l-1.85,2.91s21.82-3.68,27.92-.54l-1.35-3S278.72,257,271.06,260.35Z" style="fill:#fff;opacity:0.6000000000000001"></path><path d="M291.77,259.66s16.55-5,18.88-3.67.18,10.63-.57,10.51c0,0,4.27,1.16,3.54,4.23s-3.51,8.48-5.87,7.92-15.2-15.39-15.2-15.39S284.1,283,280.44,281.52s-6.63-8.12-6.82-9.31,1.57-2.89,1.57-2.89-2.08-8.42-1.09-10.67S291.77,259.66,291.77,259.66Z" style="fill:#0E630A"></path><path d="M291.77,259.66s16.55-5,18.88-3.67.18,10.63-.57,10.51c0,0,4.27,1.16,3.54,4.23s-3.51,8.48-5.87,7.92-15.2-15.39-15.2-15.39S284.1,283,280.44,281.52s-6.63-8.12-6.82-9.31,1.57-2.89,1.57-2.89-2.08-8.42-1.09-10.67S291.77,259.66,291.77,259.66Z" style="fill:#fff;opacity:0.7000000000000001"></path><path d="M275.19,269.32s5.32-4.39,16-6.56a48.3,48.3,0,0,0-8,0c-5.47.33-.26-2.64,7.62-1.25l-.68-1.16a9.91,9.91,0,0,1,1.72,2.54c.12.73-9.84,13.73-11.42,13.26s8.67-11.64,8.67-11.64A60.8,60.8,0,0,0,275.19,269.32Z" style="opacity:0.1"></path><path d="M293,263.05s15.6,11.13,16.72,10-11.8-8.51-11.8-8.51,7.58.52,12.13,2c0,0-7-3.94-14.11-4.6,0,0,9.16.07,9.29-1.55s-11.37.5-11.37.5v-1.19A25.25,25.25,0,0,1,293,263.05Z" style="opacity:0.1"></path><path d="M281.2,281.09c-1,0,11.33-18.13,11.33-18.13s14.84,12.87,15.4,13.85-10.11-8.11-15.4-13.85C292.53,263,282.92,281.18,281.2,281.09Z" style="opacity:0.1"></path></g><g id="freepik--character-1--inject-36"><g id="freepik--group--inject-36"><path d="M128.41,174.88l-3.81-7.77,7.24-2.21s3.43,5,.57,9.21Z" style="fill:#e4897b"></path><polygon points="124.99 163.57 130.59 160.59 131.84 164.9 124.6 167.11 124.99 163.57" style="fill:#e4897b"></polygon><path d="M128.41,174.88l4.35,8.53s4.59-2.68,4.41-2.93-4.49-8.11-4.49-8.11Z" style="fill:#e4897b"></path><polygon points="129.59 179.43 128.58 177.72 134.32 174.28 135.21 176.23 129.59 179.43" style="fill:#0E630A"></polygon><polygon points="129.59 179.43 128.58 177.72 134.32 174.28 135.21 176.23 129.59 179.43" style="fill:#fff;opacity:0.7000000000000001"></polygon><path d="M186.64,186.8c.12.48.48.8.79.71s.46-.54.34-1-.48-.79-.79-.71S186.51,186.32,186.64,186.8Z" style="fill:#263238"></path><path d="M186.66,188.55a17.12,17.12,0,0,0,3.35,3.31,2.94,2.94,0,0,1-2.17,1Z" style="fill:#de5753"></path><path d="M184.24,185.24a.28.28,0,0,0,.23-.18,2.34,2.34,0,0,1,1.55-1.42.29.29,0,0,0,.23-.34.29.29,0,0,0-.34-.23,2.89,2.89,0,0,0-2,1.77.29.29,0,0,0,.16.38A.23.23,0,0,0,184.24,185.24Z" style="fill:#263238"></path><path d="M188.4,195.79c0,.32-.08.64-.14,1a9.06,9.06,0,0,1-2.55,4.72,9.88,9.88,0,0,1-1.05.89,8.22,8.22,0,0,1-6.92,1.36,8.37,8.37,0,0,1-2.94-1.44c-3.71-2.77-4.19-6.54-5.51-12.85A8.82,8.82,0,0,1,180,178.92C186.64,180.53,188.92,189.86,188.4,195.79Z" style="fill:#e4897b"></path><path d="M185.71,201.46a9.88,9.88,0,0,1-1.05.89,8.22,8.22,0,0,1-6.92,1.36,9.45,9.45,0,0,1,.81-2.33A12.65,12.65,0,0,1,185.71,201.46Z" style="isolation:isolate;opacity:0.2"></path><path d="M174.13,212c3.55,2.38,12.47.18,12.47.18s-1.77-2.12-4-9.3a5.4,5.4,0,0,1,0-1.84L172,195.44C173.92,199.89,176.7,208.2,174.13,212Z" style="fill:#e4897b"></path><path d="M177.8,176.45s1.52-1.28,4.8,1c2.76,1.92.6,4.12,2.5,6.82s.37,5.89.37,5.89-.95,3.21-3.4,3.39c0,0-1.62,2.69-.93,5.13s-2.58,4.93-7.44,5.59-3.38-2.65-3.38-2.65a20.34,20.34,0,0,1-4.19-4.94,19.08,19.08,0,0,1-2.52-7.39,10.3,10.3,0,0,1,1.7-7.78C168,177.37,175.45,174.37,177.8,176.45Z" style="fill:#263238"></path><path d="M180.65,192.34a4.15,4.15,0,0,0,2.54,2.5c1.37.36,1.95-1.59,1.48-3.48-.44-1.67-1.67-3.92-3-3.4S179.94,190.69,180.65,192.34Z" style="fill:#e4897b"></path><path d="M173.23,206.72l1-2.21s11.21.11,13.08,6.71Z" style="fill:#0E630A"></path><path d="M173.23,206.72l1-2.21s11.21.11,13.08,6.71Z" style="fill:#fff;opacity:0.8"></path><path d="M168.89,208.16,173,206a32,32,0,0,1,16.79,5.37S173.83,212.93,168.89,208.16Z" style="fill:#263238"></path><path d="M168.28,209.43s-17.95-11.14-19.52-12.38-13.7-21.37-13.7-21.37l-6.29,3.17s11,21.49,13,24.73,24.95,21,24.95,21Z" style="fill:#263238"></path><path d="M234.14,261.41l7.52,4.28-4.74,5.9s-5.68-2.25-5.65-7.3Z" style="fill:#e4897b"></path><path d="M240.91,271.39l-2.53,1.31a1,1,0,0,1-1.46-1.11h0l4.74-5.9.62,2.74A2.67,2.67,0,0,1,240.91,271.39Z" style="fill:#e4897b"></path><path d="M235.28,262.47l-6.91-6.63s-3.46,4-3.2,4.21,6.9,6.19,6.9,6.19Z" style="fill:#e4897b"></path><polygon points="232.04 259.28 233.7 260.39 230 265.97 228.37 264.6 232.04 259.28" style="fill:#0E630A"></polygon><polygon points="232.04 259.28 233.7 260.39 230 265.97 228.37 264.6 232.04 259.28" style="fill:#fff;opacity:0.7000000000000001"></polygon><path d="M195,213.61a281.44,281.44,0,0,1,6.08,52.63H166.55l-2.69-54Z" style="fill:#0E630A"></path><path d="M195,213.61a281.44,281.44,0,0,1,6.08,52.63H166.55l-2.69-54Z" style="fill:#fff;opacity:0.7000000000000001"></path><path d="M136.4,258.18a57.93,57.93,0,0,1,20.89,0c13,2.41,17.41,6.56,17.41,6.56,16.44-7.53,22.74-13.44,24.76-23.53,2.57-12.88-5.29-29.54-5.29-29.54-21.5-3.66-30.31-5.11-30.31-5.11-3.06,7.31-1.32,16.86-1.32,16.86S150.72,250.64,136.4,258.18Z" style="fill:#263238"></path><path d="M136.4,258.18a57.93,57.93,0,0,1,20.89,0c13,2.41,17.41,6.56,17.41,6.56,16.44-7.53,22.74-13.44,24.76-23.53,2.57-12.88-5.29-29.54-5.29-29.54-21.5-3.66-30.31-5.11-30.31-5.11-3.06,7.31-1.32,16.86-1.32,16.86S150.72,250.64,136.4,258.18Z" style="fill:#fff;opacity:0.1"></path><path d="M194.17,211.67c6.92,0,14.19,20.39,17.68,25.67,2.41,3.65,21.16,22,21.16,22l-4.25,6.08S207,249,204.27,245.08s-6.59-10.3-6.59-10.3-3.83-8.49-4.4-11.45A25.62,25.62,0,0,1,194.17,211.67Z" style="fill:#263238"></path><polygon points="184.88 410.56 191.13 410.56 191.76 396.08 185.5 396.08 184.88 410.56" style="fill:#e4897b"></polygon><polygon points="138.97 407.67 145.08 408.99 151.22 395.5 145.1 394.17 138.97 407.67" style="fill:#e4897b"></polygon><path d="M145.67,408.38l-6.87-1.49a.54.54,0,0,0-.61.3l-2.39,5.18a.93.93,0,0,0,.66,1.28c2.41.48,3.61.59,6.63,1.24,1.85.4,6,1.43,8.62,2s3.45-1.91,2.44-2.36c-4.48-2.06-6.36-3.86-7.57-5.54A1.51,1.51,0,0,0,145.67,408.38Z" style="fill:#263238"></path><path d="M191.09,409.84h-6.83a.55.55,0,0,0-.53.43l-1.24,5.56a.91.91,0,0,0,.9,1.11c2.47,0,6-.19,9.13-.19,3.62,0,6.74.2,11,.2,2.57,0,3.28-2.6,2.21-2.83-4.9-1.07-8.89-1.19-13.12-3.79A2.85,2.85,0,0,0,191.09,409.84Z" style="fill:#263238"></path><polygon points="191.75 396.08 191.44 403.55 185.18 403.55 185.5 396.08 191.75 396.08" style="opacity:0.2"></polygon><polygon points="145.1 394.18 151.22 395.5 148.05 402.46 141.93 401.13 145.1 394.18" style="opacity:0.2"></polygon><path d="M166.55,266c-1.75,14.46-5,41.08-7,55.47C156,348,140,399.32,140,399.32l11.2,2.35s22.88-62.94,27.15-82c2.76-12.3,7.12-39.13,9.43-53.75Z" style="fill:#263238"></path><path d="M153.89,397.92S151.8,402,151.8,402l-12.6-2.73,1.06-3.78Z"></path><path d="M182.47,289s-5.08,7.75-3.95,30c1.59-7.26,3.68-19.06,5.6-30.48Z" style="opacity:0.30000000000000004"></path><path d="M179.79,266c.78,14.4,2.16,40.85,2.52,55.35.47,18.9.86,80.8.86,80.8h10.6s6.93-63,7.63-82.27c.48-13.05.2-39.44,0-53.88Z" style="fill:#263238"></path><path d="M195.81,397.88s-.6,4.4-.6,4.4H182.32l-.35-3.93Z"></path><polygon points="174.27 270.44 165.68 270.44 166.3 266.96 174.5 266.96 174.27 270.44"></polygon><polygon points="175.84 266.96 190.39 266.96 190.39 270.44 175.62 270.44 175.84 266.96"></polygon><polygon points="192.13 266.96 201.45 266.96 201.5 270.44 192.13 270.44 192.13 266.96"></polygon></g></g></svg>
